<svg xmlns="http://www.w3.org/2000/svg" viewBox="0 0 48 48" fill="none">
  <path d="M44.5 24.6c0-1.6-.1-3.1-.4-4.6H24v8.7h11.5c-.5 2.8-2.1 5.1-4.4 6.7v5.6h7.1c4.1-3.8 6.3-9.3 6.3-16.4Z" fill="#4285F4"/>
  <path d="M24 45c5.7 0 10.4-1.9 13.9-5.1l-7.1-5.6c-2 1.3-4.5 2.1-6.8 2.1-5.2 0-9.7-3.5-11.3-8.3H5.4v5.8A21 21 0 0 0 24 45Z" fill="#34A853"/>
  <path d="M12.7 28.1A12.7 12.7 0 0 1 12 24c0-1.4.2-2.8.7-4.1V14H5.4A21 21 0 0 0 3 24c0 3.4.8 6.6 2.4 9.8l7.3-5.7Z" fill="#FBBC05"/>
  <path d="M24 11.6c3.1 0 5.8 1 7.9 3L37.7 9A21 21 0 0 0 5.4 14l7.3 5.8c1.6-4.8 6.1-8.2 11.3-8.2Z" fill="#EA4335"/>
</svg>
